<svg xmlns="http://www.w3.org/2000/svg" viewBox="0 0 60 60" fill="none" x="0px" y="0px">
<path fill-rule="evenodd" clip-rule="evenodd" d="M7 16C7 8.26801 13.268 2 21 2H43C50.732 2 57 8.26801 57 16V48C57 55.732 50.732 62 43 62H21C13.268 62 7 55.732 7 48V16ZM18 18.6324C18 16.2331 19.7365 14.2571 22.006 13.8441C22.0855 12.8124 22.9479 12 24 12C25.025 12 25.8699 12.771 25.9863 13.7647H28C29.1046 13.7647 30 14.6601 30 15.7647C30 16.8693 29.1046 17.7647 28 17.7647H22.8889C22.384 17.7647 22 18.1671 22 18.6324C22 19.0977 22.384 19.5 22.8889 19.5H25.1111C27.7972 19.5 30 21.6654 30 24.3676C30 26.7669 28.2635 28.7429 25.994 29.1559C25.9145 30.1876 25.0521 31 24 31C22.975 31 22.1301 30.229 22.0137 29.2353H20C18.8954 29.2353 18 28.3399 18 27.2353C18 26.1307 18.8954 25.2353 20 25.2353H25.1111C25.616 25.2353 26 24.8329 26 24.3676C26 23.9023 25.616 23.5 25.1111 23.5H22.8889C20.2028 23.5 18 21.3346 18 18.6324ZM18 41C18 39.8954 18.8954 39 20 39H44C45.1046 39 46 39.8954 46 41C46 42.1046 45.1046 43 44 43H20C18.8954 43 18 42.1046 18 41ZM36 15C34.8954 15 34 15.8954 34 17C34 18.1046 34.8954 19 36 19H44C45.1046 19 46 18.1046 46 17C46 15.8954 45.1046 15 44 15H36ZM18 49C18 47.8954 18.8954 47 20 47H44C45.1046 47 46 47.8954 46 49C46 50.1046 45.1046 51 44 51H20C18.8954 51 18 50.1046 18 49ZM36 23C34.8954 23 34 23.8954 34 25C34 26.1046 34.8954 27 36 27H44C45.1046 27 46 26.1046 46 25C46 23.8954 45.1046 23 44 23H36Z" fill="black"/>
</svg>