<svg width="80" height="80" viewBox="0 0 80 80" fill="none" xmlns="http://www.w3.org/2000/svg">
<circle cx="40" cy="40" r="40" fill="#7737FF"/>
<path fill-rule="evenodd" clip-rule="evenodd" d="M19 26.6667C19 20.2233 24.2233 15 30.6667 15H49C55.4433 15 60.6667 20.2233 60.6667 26.6667V53.3333C60.6667 59.7767 55.4433 65 49 65H30.6667C24.2233 65 19 59.7767 19 53.3333V26.6667ZM28.1667 28.8603C28.1667 26.8609 29.6138 25.2142 31.505 24.8701C31.5713 24.0103 32.2899 23.3333 33.1667 23.3333C34.0208 23.3333 34.7249 23.9758 34.8219 24.8039H36.5C37.4205 24.8039 38.1667 25.5501 38.1667 26.4706C38.1667 27.3911 37.4205 28.1372 36.5 28.1372H32.2408C31.82 28.1372 31.5 28.4726 31.5 28.8603C31.5 29.2481 31.82 29.5833 32.2408 29.5833H34.0926C36.331 29.5833 38.1667 31.3878 38.1667 33.6397C38.1667 35.6391 36.7196 37.2857 34.8283 37.6299C34.7621 38.4897 34.0434 39.1667 33.1667 39.1667C32.3125 39.1667 31.6084 38.5242 31.5114 37.6961H29.8333C28.9128 37.6961 28.1667 36.9499 28.1667 36.0294C28.1667 35.1089 28.9128 34.3627 29.8333 34.3627H34.0926C34.5133 34.3627 34.8333 34.0274 34.8333 33.6397C34.8333 33.2519 34.5133 32.9167 34.0926 32.9167H32.2408C30.0023 32.9167 28.1667 31.1122 28.1667 28.8603ZM28.1667 47.5C28.1667 46.5795 28.9128 45.8333 29.8333 45.8333H49.8333C50.7538 45.8333 51.5 46.5795 51.5 47.5C51.5 48.4205 50.7538 49.1667 49.8333 49.1667H29.8333C28.9128 49.1667 28.1667 48.4205 28.1667 47.5ZM43.1667 25.8333C42.2462 25.8333 41.5 26.5795 41.5 27.5C41.5 28.4205 42.2462 29.1667 43.1667 29.1667H49.8333C50.7538 29.1667 51.5 28.4205 51.5 27.5C51.5 26.5795 50.7538 25.8333 49.8333 25.8333H43.1667ZM28.1667 54.1667C28.1667 53.2462 28.9128 52.5 29.8333 52.5H49.8333C50.7538 52.5 51.5 53.2462 51.5 54.1667C51.5 55.0872 50.7538 55.8333 49.8333 55.8333H29.8333C28.9128 55.8333 28.1667 55.0872 28.1667 54.1667ZM43.1667 32.5C42.2462 32.5 41.5 33.2462 41.5 34.1667C41.5 35.0872 42.2462 35.8333 43.1667 35.8333H49.8333C50.7538 35.8333 51.5 35.0872 51.5 34.1667C51.5 33.2462 50.7538 32.5 49.8333 32.5H43.1667Z" fill="white"/>
</svg>
